<?xml version="1.0" encoding="UTF-8"?>
<svg id="Layer_2" data-name="Layer 2" xmlns="http://www.w3.org/2000/svg" viewBox="0 0 198.43 39.88">
  <defs>
    <style>
      .cls-1 {
        fill: #fff;
      }
    </style>
  </defs>
  <g id="Layer_1-2" data-name="Layer 1">
    <g>
      <polygon class="cls-1" points="172.74 39.08 172.74 34.89 183.17 34.89 183.17 12.14 172.74 12.14 172.74 7.95 198.43 7.95 198.43 12.14 187.69 12.14 187.69 34.89 198.43 34.89 198.43 39.08 172.74 39.08"/>
      <path class="cls-1" d="M51.06,39.08c-3.57,0-6.47-2.9-6.47-6.47V13.94h-9.97v-4.4h9.97V0h4.7v9.54h13.03v4.4h-13.03v20.74h13.15v4.4h-11.39Z"/>
      <path class="cls-1" d="M104.78,39.82v-3.98h22.94v3.98h-22.94Z"/>
      <path class="cls-1" d="M81.45,8.38c-1.73,0-3.29.68-4.45,1.79h-.86v-1.88h-4.88v4.51h3.72v26.29h4.7V12.79h17.37v-4.41h-15.6Z"/>
      <path class="cls-1" d="M14.43,6.97C6.18,6.97,0,13.52,0,23.42s6.18,16.45,14.43,16.45,14.43-6.55,14.43-16.45S22.68,6.97,14.43,6.97ZM14.43,35.48c-6.77,0-9.73-6.58-9.73-12.05s2.95-12.05,9.73-12.05,9.73,6.58,9.73,12.05-2.95,12.05-9.73,12.05Z"/>
      <path class="cls-1" d="M155.4,7.95h-8.49l-10.79,31.13h4.74s2.83-8.17,2.83-8.17v.29h15.03l2.72,7.86h4.74s-10.79-31.12-10.79-31.12ZM145.04,27.02l5.71-16.49h.8l5.71,16.49h-12.23Z"/>
    </g>
  </g>
</svg>