<?xml version="1.0" encoding="UTF-8"?><svg id="Layer_2" xmlns="http://www.w3.org/2000/svg" viewBox="0 0 396.85 79.753"><defs><style>.cls-1{fill:#141e19;}</style></defs><g id="Layer_1-2"><polygon class="cls-1" points="345.472 78.163 345.472 69.776 366.344 69.776 366.344 24.284 345.472 24.284 345.472 15.899 396.85 15.899 396.85 24.284 375.386 24.284 375.386 69.776 396.85 69.776 396.85 78.163 345.472 78.163"/><path class="cls-1" d="M102.12,78.163c-7.145,0-12.936-5.792-12.936-12.936V27.881h-19.941v-8.797h19.941V0h9.409v19.085h26.058v8.797h-26.058v41.485h26.303v8.797h-22.775Z"/><path class="cls-1" d="M209.568,79.637v-7.952h45.877v7.952h-45.877Z"/><path class="cls-1" d="M162.909,16.76c-3.451,0-6.588,1.361-8.91,3.57h-1.716v-3.757h-9.755v9.013h7.443v52.577h9.409V25.586h34.731v-8.825h-31.202Z"/><path class="cls-1" d="M28.866,13.946C12.365,13.946,0,27.037,0,46.85s12.365,32.904,28.866,32.904,28.866-13.091,28.866-32.904S45.367,13.946,28.866,13.946ZM28.866,70.957c-13.549,0-19.458-13.163-19.458-24.107s5.909-24.107,19.458-24.107,19.458,13.163,19.458,24.107-5.909,24.107-19.458,24.107Z"/><path class="cls-1" d="M310.808,15.899h-16.981l-21.576,62.264,9.484-.03,5.651-16.307v.59h30.068l5.446,15.717,9.484.03-21.576-62.264ZM290.088,54.03l11.428-32.977h1.606l11.428,32.977h-24.461Z"/></g></svg>